<svg xmlns="http://www.w3.org/2000/svg" xmlns:xlink="http://www.w3.org/1999/xlink" width="250" zoomAndPan="magnify" viewBox="0 0 187.5 74.999997" height="100" preserveAspectRatio="xMidYMid meet" version="1.0"><defs><g/></defs><g fill="#1f2a44" fill-opacity="1"><g transform="translate(2.764113, 44.606046)"><g><path d="M 1.65625 -13.953125 L 8 -13.953125 C 9.507812 -13.953125 10.84375 -13.660156 12 -13.078125 C 13.164062 -12.503906 14.070312 -11.691406 14.71875 -10.640625 C 15.363281 -9.597656 15.6875 -8.378906 15.6875 -6.984375 C 15.6875 -5.585938 15.363281 -4.363281 14.71875 -3.3125 C 14.070312 -2.257812 13.164062 -1.441406 12 -0.859375 C 10.84375 -0.285156 9.507812 0 8 0 L 1.65625 0 Z M 7.828125 -2.65625 C 9.222656 -2.65625 10.335938 -3.039062 11.171875 -3.8125 C 12.003906 -4.59375 12.421875 -5.648438 12.421875 -6.984375 C 12.421875 -8.304688 12.003906 -9.351562 11.171875 -10.125 C 10.335938 -10.90625 9.222656 -11.296875 7.828125 -11.296875 L 4.890625 -11.296875 L 4.890625 -2.65625 Z M 7.828125 -2.65625 "/></g></g></g><g fill="#1f2a44" fill-opacity="1"><g transform="translate(19.233675, 44.606046)"><g><path d="M 10.84375 -2.984375 L 4.359375 -2.984375 L 3.125 0 L -0.171875 0 L 6.046875 -13.953125 L 9.234375 -13.953125 L 15.46875 0 L 12.078125 0 Z M 9.828125 -5.4375 L 7.609375 -10.78125 L 5.40625 -5.4375 Z M 9.828125 -5.4375 "/></g></g></g><g fill="#1f2a44" fill-opacity="1"><g transform="translate(34.506903, 44.606046)"><g><path d="M 10.546875 0 L 7.859375 -3.890625 L 4.890625 -3.890625 L 4.890625 0 L 1.65625 0 L 1.65625 -13.953125 L 7.703125 -13.953125 C 8.929688 -13.953125 10 -13.742188 10.90625 -13.328125 C 11.820312 -12.921875 12.523438 -12.335938 13.015625 -11.578125 C 13.503906 -10.828125 13.75 -9.929688 13.75 -8.890625 C 13.75 -7.859375 13.5 -6.960938 13 -6.203125 C 12.507812 -5.453125 11.804688 -4.878906 10.890625 -4.484375 L 14.015625 0 Z M 10.484375 -8.890625 C 10.484375 -9.671875 10.226562 -10.269531 9.71875 -10.6875 C 9.21875 -11.113281 8.484375 -11.328125 7.515625 -11.328125 L 4.890625 -11.328125 L 4.890625 -6.453125 L 7.515625 -6.453125 C 8.484375 -6.453125 9.21875 -6.664062 9.71875 -7.09375 C 10.226562 -7.519531 10.484375 -8.117188 10.484375 -8.890625 Z M 10.484375 -8.890625 "/></g></g></g><g fill="#1f2a44" fill-opacity="1"><g transform="translate(49.162025, 44.606046)"><g><path d="M 6.734375 -5.484375 L 4.859375 -3.53125 L 4.859375 0 L 1.65625 0 L 1.65625 -13.953125 L 4.859375 -13.953125 L 4.859375 -7.4375 L 11.046875 -13.953125 L 14.640625 -13.953125 L 8.859375 -7.734375 L 14.96875 0 L 11.203125 0 Z M 6.734375 -5.484375 "/></g></g></g><g fill="#000000" fill-opacity="1"><g transform="translate(63.925233, 44.606046)"><g/></g></g><g fill="#4a4a4a" fill-opacity="1"><g transform="translate(69.149583, 44.606046)"><g><path d="M 2.265625 -13.953125 L 7.953125 -13.953125 C 9.429688 -13.953125 10.734375 -13.65625 11.859375 -13.0625 C 12.992188 -12.476562 13.875 -11.65625 14.5 -10.59375 C 15.125 -9.539062 15.4375 -8.335938 15.4375 -6.984375 C 15.4375 -5.617188 15.125 -4.410156 14.5 -3.359375 C 13.875 -2.304688 12.992188 -1.484375 11.859375 -0.890625 C 10.734375 -0.296875 9.429688 0 7.953125 0 L 2.265625 0 Z M 7.875 -1.28125 C 9.09375 -1.28125 10.160156 -1.519531 11.078125 -2 C 12.003906 -2.488281 12.71875 -3.160156 13.21875 -4.015625 C 13.71875 -4.867188 13.96875 -5.859375 13.96875 -6.984375 C 13.96875 -8.097656 13.71875 -9.082031 13.21875 -9.9375 C 12.71875 -10.789062 12.003906 -11.460938 11.078125 -11.953125 C 10.160156 -12.441406 9.09375 -12.6875 7.875 -12.6875 L 3.75 -12.6875 L 3.75 -1.28125 Z M 7.875 -1.28125 "/></g></g></g><g fill="#4a4a4a" fill-opacity="1"><g transform="translate(85.619144, 44.606046)"><g><path d="M 11.03125 -3.734375 L 3.25 -3.734375 L 1.578125 0 L 0.046875 0 L 6.421875 -13.953125 L 7.875 -13.953125 L 14.25 0 L 12.703125 0 Z M 10.484375 -4.921875 L 7.140625 -12.421875 L 3.78125 -4.921875 Z M 10.484375 -4.921875 "/></g></g></g><g fill="#4a4a4a" fill-opacity="1"><g transform="translate(99.915363, 44.606046)"><g><path d="M 4.984375 -12.6875 L 0.078125 -12.6875 L 0.078125 -13.953125 L 11.359375 -13.953125 L 11.359375 -12.6875 L 6.453125 -12.6875 L 6.453125 0 L 4.984375 0 Z M 4.984375 -12.6875 "/></g></g></g><g fill="#4a4a4a" fill-opacity="1"><g transform="translate(111.360314, 44.606046)"><g><path d="M 11.03125 -3.734375 L 3.25 -3.734375 L 1.578125 0 L 0.046875 0 L 6.421875 -13.953125 L 7.875 -13.953125 L 14.25 0 L 12.703125 0 Z M 10.484375 -4.921875 L 7.140625 -12.421875 L 3.78125 -4.921875 Z M 10.484375 -4.921875 "/></g></g></g><g fill="#4a4a4a" fill-opacity="1"><g transform="translate(125.656533, 44.606046)"><g/></g></g><g fill="#4a4a4a" fill-opacity="1"><g transform="translate(130.88054, 44.606046)"><g><path d="M 2.265625 -13.953125 L 3.75 -13.953125 L 3.75 -1.28125 L 11.5625 -1.28125 L 11.5625 0 L 2.265625 0 Z M 2.265625 -13.953125 "/></g></g></g><g fill="#4a4a4a" fill-opacity="1"><g transform="translate(142.624575, 44.606046)"><g><path d="M 11.03125 -3.734375 L 3.25 -3.734375 L 1.578125 0 L 0.046875 0 L 6.421875 -13.953125 L 7.875 -13.953125 L 14.25 0 L 12.703125 0 Z M 10.484375 -4.921875 L 7.140625 -12.421875 L 3.78125 -4.921875 Z M 10.484375 -4.921875 "/></g></g></g><g fill="#4a4a4a" fill-opacity="1"><g transform="translate(156.920794, 44.606046)"><g><path d="M 11.0625 -7.203125 C 11.976562 -6.992188 12.6875 -6.59375 13.1875 -6 C 13.6875 -5.414062 13.9375 -4.660156 13.9375 -3.734375 C 13.9375 -2.535156 13.492188 -1.613281 12.609375 -0.96875 C 11.722656 -0.320312 10.414062 0 8.6875 0 L 2.265625 0 L 2.265625 -13.953125 L 8.296875 -13.953125 C 9.847656 -13.953125 11.050781 -13.640625 11.90625 -13.015625 C 12.769531 -12.390625 13.203125 -11.507812 13.203125 -10.375 C 13.203125 -9.601562 13.007812 -8.945312 12.625 -8.40625 C 12.25 -7.863281 11.726562 -7.460938 11.0625 -7.203125 Z M 3.75 -12.734375 L 3.75 -7.671875 L 8.1875 -7.671875 C 9.320312 -7.671875 10.191406 -7.882812 10.796875 -8.3125 C 11.410156 -8.75 11.71875 -9.378906 11.71875 -10.203125 C 11.71875 -11.023438 11.410156 -11.648438 10.796875 -12.078125 C 10.191406 -12.515625 9.320312 -12.734375 8.1875 -12.734375 Z M 8.671875 -1.21875 C 9.921875 -1.21875 10.863281 -1.429688 11.5 -1.859375 C 12.144531 -2.285156 12.46875 -2.945312 12.46875 -3.84375 C 12.46875 -5.582031 11.203125 -6.453125 8.671875 -6.453125 L 3.75 -6.453125 L 3.75 -1.21875 Z M 8.671875 -1.21875 "/></g></g></g><g fill="#4a4a4a" fill-opacity="1"><g transform="translate(171.954758, 44.606046)"><g><path d="M 6.125 0.125 C 5.082031 0.125 4.085938 -0.0390625 3.140625 -0.375 C 2.191406 -0.707031 1.457031 -1.144531 0.9375 -1.6875 L 1.515625 -2.828125 C 2.015625 -2.328125 2.679688 -1.921875 3.515625 -1.609375 C 4.359375 -1.296875 5.226562 -1.140625 6.125 -1.140625 C 7.375 -1.140625 8.3125 -1.367188 8.9375 -1.828125 C 9.5625 -2.285156 9.875 -2.878906 9.875 -3.609375 C 9.875 -4.171875 9.703125 -4.613281 9.359375 -4.9375 C 9.023438 -5.269531 8.609375 -5.523438 8.109375 -5.703125 C 7.617188 -5.890625 6.9375 -6.085938 6.0625 -6.296875 C 5.007812 -6.566406 4.171875 -6.820312 3.546875 -7.0625 C 2.921875 -7.3125 2.382812 -7.6875 1.9375 -8.1875 C 1.5 -8.695312 1.28125 -9.382812 1.28125 -10.25 C 1.28125 -10.945312 1.460938 -11.585938 1.828125 -12.171875 C 2.203125 -12.753906 2.773438 -13.21875 3.546875 -13.5625 C 4.316406 -13.90625 5.273438 -14.078125 6.421875 -14.078125 C 7.210938 -14.078125 7.988281 -13.96875 8.75 -13.75 C 9.519531 -13.53125 10.1875 -13.226562 10.75 -12.84375 L 10.25 -11.65625 C 9.664062 -12.039062 9.039062 -12.328125 8.375 -12.515625 C 7.707031 -12.710938 7.054688 -12.8125 6.421875 -12.8125 C 5.191406 -12.8125 4.269531 -12.578125 3.65625 -12.109375 C 3.039062 -11.640625 2.734375 -11.03125 2.734375 -10.28125 C 2.734375 -9.726562 2.898438 -9.28125 3.234375 -8.9375 C 3.578125 -8.601562 4.003906 -8.34375 4.515625 -8.15625 C 5.023438 -7.976562 5.710938 -7.785156 6.578125 -7.578125 C 7.597656 -7.328125 8.425781 -7.078125 9.0625 -6.828125 C 9.695312 -6.578125 10.234375 -6.203125 10.671875 -5.703125 C 11.109375 -5.210938 11.328125 -4.539062 11.328125 -3.6875 C 11.328125 -2.976562 11.132812 -2.332031 10.75 -1.75 C 10.375 -1.175781 9.789062 -0.71875 9 -0.375 C 8.21875 -0.0390625 7.257812 0.125 6.125 0.125 Z M 6.125 0.125 "/></g></g></g></svg>